# Blender 4.5.0
# www.blender.org
o Chicken_
v -0.029973 0.003446 -0.038980
v -0.095735 0.036328 -0.006099
v -0.095735 0.003446 -0.038980
v -0.095735 0.036328 -0.038980
v -0.029973 0.003446 0.026782
v -0.029973 0.036328 0.026782
v -0.029973 0.003446 -0.006099
v -0.029973 0.036328 -0.006099
v 0.002908 0.003446 0.026782
v 0.002908 0.003446 -0.006099
v -0.095735 0.003446 0.026782
v -0.095735 0.036328 0.026782
v -0.095735 0.003446 -0.006099
v -0.062854 0.003446 0.026782
v -0.062854 0.036328 0.026782
v -0.062854 0.003446 -0.071861
v -0.062854 0.036328 -0.071861
v -0.029973 0.003446 -0.071861
v -0.029973 0.036328 -0.071861
v -0.062854 0.003446 -0.006099
v -0.062854 0.036328 -0.006099
v -0.062854 0.003446 -0.038980
v -0.062854 0.036328 -0.038980
v -0.029973 0.036328 -0.038980
v -0.062854 0.134971 -0.071861
v -0.029973 0.134971 -0.071861
v -0.062854 0.134971 -0.137623
v -0.029973 0.134971 -0.038980
v -0.095735 0.134971 -0.038980
v -0.095735 0.134971 -0.071861
v -0.095735 0.134971 0.059664
v -0.062854 0.134971 0.059664
v -0.062854 0.134971 -0.038980
v 0.068671 0.003446 -0.038980
v 0.101552 0.036328 -0.006099
v 0.101552 0.003446 -0.038980
v 0.101552 0.036328 -0.038980
v 0.002908 0.036328 -0.006099
v 0.002908 0.003446 -0.038980
v 0.002908 0.036328 -0.038980
v 0.068671 0.003446 0.026782
v 0.068671 0.036328 0.026782
v 0.068671 0.003446 -0.006099
v 0.068671 0.036328 -0.006099
v 0.101552 0.003446 0.026782
v 0.101552 0.036328 0.026782
v 0.101552 0.003446 -0.006099
v 0.002908 0.036328 0.026782
v 0.035789 0.003446 0.026782
v 0.035789 0.036328 0.026782
v 0.035789 0.003446 -0.071861
v 0.035789 0.036328 -0.071861
v 0.068671 0.003446 -0.071861
v 0.068671 0.036328 -0.071861
v 0.035789 0.003446 -0.006099
v 0.035789 0.036328 -0.006099
v 0.035789 0.003446 -0.038980
v 0.035789 0.036328 -0.038980
v 0.068671 0.036328 -0.038980
v 0.035789 0.134971 -0.071861
v 0.068671 0.134971 0.059664
v 0.068671 0.134971 -0.038980
v 0.068671 0.134971 -0.071861
v 0.101552 0.134971 -0.071861
v 0.101552 0.134971 -0.038980
v 0.035789 0.134971 -0.137623
v 0.035789 0.134971 -0.038980
v -0.029973 0.134971 0.092545
v -0.029973 0.134971 0.059664
v -0.095735 0.134971 0.092545
v -0.062854 0.134971 0.092545
v 0.035789 0.134971 0.092545
v 0.068671 0.134971 0.092545
v 0.101552 0.134971 0.092545
v 0.101552 0.134971 0.059664
v 0.035789 0.134971 0.059664
v -0.029973 0.134971 -0.170505
v -0.029973 0.134971 -0.137623
v -0.095735 0.134971 -0.137623
v -0.095735 0.134971 -0.170505
v -0.062854 0.134971 -0.170505
v 0.068671 0.134971 -0.137623
v 0.068671 0.134971 -0.170505
v 0.101552 0.134971 -0.137623
v 0.101552 0.134971 -0.170505
v 0.035789 0.134971 -0.170505
v -0.095735 0.200733 -0.137623
v -0.095735 0.200733 -0.038980
v 0.101552 0.200733 -0.071861
v -0.095735 0.200733 0.092545
v -0.095735 0.200733 0.059664
v -0.062854 0.200733 0.092545
v -0.062854 0.200733 -0.170505
v -0.029973 0.200733 -0.170505
v -0.095735 0.200733 -0.170505
v 0.101552 0.200733 -0.137623
v 0.101552 0.200733 -0.170505
v -0.095735 0.200733 -0.071861
v 0.068671 0.200733 0.092545
v 0.101552 0.200733 0.092545
v 0.068671 0.200733 -0.170505
v 0.035789 0.200733 -0.170505
v -0.095735 0.266496 0.059664
v -0.029973 0.266496 0.092545
v 0.101552 0.266496 0.092545
v 0.101552 0.266496 0.059664
v -0.029973 0.266496 -0.170505
v -0.095735 0.266496 -0.170505
v -0.062854 0.266496 -0.170505
v 0.101552 0.266496 -0.137623
v 0.101552 0.266496 -0.170505
v 0.035789 0.266496 -0.170505
v -0.095735 0.266496 -0.137623
v -0.062854 0.266496 0.092545
v -0.095735 0.266496 0.092545
v 0.035789 0.266496 0.092545
v 0.068671 0.266496 0.092545
v 0.068671 0.266496 -0.170505
v -0.062854 0.332258 -0.137623
v -0.029973 0.332258 -0.137623
v -0.029973 0.332258 0.059664
v -0.062854 0.332258 -0.038980
v -0.095735 0.332258 -0.038980
v -0.095735 0.332258 -0.071861
v -0.062854 0.332258 -0.071861
v -0.095735 0.332258 -0.137623
v -0.095735 0.332258 0.059664
v -0.062854 0.332258 0.059664
v 0.068671 0.332258 -0.038980
v 0.068671 0.332258 -0.071861
v 0.101552 0.332258 -0.071861
v -0.095735 0.332258 0.092545
v 0.068671 0.332258 0.092545
v 0.101552 0.332258 0.092545
v 0.101552 0.332258 0.059664
v -0.029973 0.332258 -0.170505
v -0.095735 0.332258 -0.170505
v -0.062854 0.332258 -0.170505
v 0.035789 0.332258 -0.170505
v 0.068671 0.332258 -0.137623
v 0.068671 0.332258 -0.170505
v 0.101552 0.332258 -0.137623
v 0.101552 0.332258 -0.170505
v 0.035789 0.332258 -0.137623
v 0.101552 0.200733 -0.038980
v 0.134433 0.200733 -0.071861
v 0.134433 0.200733 -0.137623
v 0.101552 0.200733 0.059664
v 0.134433 0.200733 0.059664
v 0.134433 0.200733 -0.038980
v 0.134433 0.266496 -0.071861
v 0.134433 0.266496 -0.137623
v 0.134433 0.266496 0.059664
v 0.134433 0.266496 -0.038980
v 0.134433 0.332258 -0.038980
v 0.134433 0.332258 -0.071861
v 0.134433 0.332258 -0.137623
v 0.134433 0.332258 0.059664
v 0.101552 0.332258 -0.038980
v -0.128616 0.200733 -0.071861
v -0.128616 0.200733 -0.137623
v -0.128616 0.200733 0.059664
v -0.128616 0.200733 -0.038980
v -0.128616 0.266496 -0.071861
v -0.128616 0.266496 -0.137623
v -0.128616 0.266496 -0.038980
v -0.128616 0.266496 0.059664
v -0.128616 0.332258 -0.071861
v -0.128616 0.332258 -0.137623
v -0.128616 0.332258 0.059664
v -0.128616 0.332258 -0.038980
v -0.062854 0.332258 0.092545
v -0.062854 0.266496 0.158307
v -0.029973 0.266496 0.158307
v 0.035789 0.299377 0.158307
v 0.068671 0.266496 0.158307
v 0.035789 0.266496 0.158307
v -0.029973 0.332258 0.158307
v -0.029973 0.299377 0.158307
v 0.035789 0.332258 0.158307
v 0.068671 0.332258 0.158307
v -0.062854 0.365139 0.059664
v -0.029973 0.365139 0.059664
v 0.035789 0.332258 0.059664
v 0.068671 0.332258 0.059664
v -0.062854 0.332258 0.158307
v -0.062854 0.365139 0.158307
v -0.062854 0.398020 0.059664
v 0.035789 0.365139 0.059664
v 0.035789 0.398020 0.059664
v 0.068671 0.365139 0.059664
v 0.068671 0.398020 0.059664
v -0.062854 0.365139 0.092545
v 0.068671 0.365139 0.092545
v 0.068671 0.398020 0.158307
v 0.035789 0.398020 0.158307
v -0.062854 0.398020 0.092545
v -0.029973 0.398020 0.059664
v 0.068671 0.398020 0.092545
v -0.062854 0.398020 0.158307
v -0.029973 0.398020 0.158307
v 0.035789 0.430901 0.158307
v 0.068671 0.430901 0.158307
v -0.062854 0.430901 0.059664
v -0.062854 0.463783 0.059664
v -0.029973 0.430901 0.092545
v -0.029973 0.430901 0.059664
v -0.029973 0.463783 0.059664
v 0.068671 0.430901 0.059664
v 0.068671 0.463783 0.059664
v 0.035789 0.430901 0.059664
v 0.035789 0.463783 0.059664
v -0.062854 0.430901 0.092545
v -0.062854 0.463783 0.092545
v -0.029973 0.463783 0.092545
v 0.035789 0.463783 0.092545
v 0.068671 0.430901 0.092545
v 0.068671 0.463783 0.092545
v -0.062854 0.430901 0.158307
v -0.062854 0.463783 0.158307
v -0.029973 0.430901 0.158307
v -0.029973 0.463783 0.158307
v 0.035789 0.463783 0.158307
v 0.068671 0.463783 0.158307
v 0.068671 0.332258 0.191188
v 0.068671 0.365139 0.191188
v -0.062854 0.365139 0.191188
v -0.062854 0.398020 0.191188
v -0.029973 0.398020 0.191188
v 0.068671 0.398020 0.191188
v 0.068671 0.365139 0.158307
v -0.062854 0.332258 0.224069
v -0.062854 0.332258 0.191188
v -0.029973 0.332258 0.191188
v -0.029973 0.332258 0.224069
v -0.029973 0.365139 0.224069
v 0.068671 0.332258 0.224069
v 0.035789 0.332258 0.224069
v 0.035789 0.332258 0.191188
v -0.062854 0.365139 0.224069
v -0.062854 0.398020 0.224069
v -0.029973 0.398020 0.224069
v 0.035789 0.398020 0.224069
v 0.068671 0.365139 0.224069
v 0.068671 0.398020 0.224069
v 0.035789 0.365139 0.224069
v 0.035789 0.398020 0.191188
v -0.029973 0.299377 0.191188
v 0.035789 0.299377 0.191188
vn -0.0000 -0.0000 1.0000
vn -1.0000 -0.0000 -0.0000
vn -0.0000 -0.0000 -1.0000
vn -0.0000 -1.0000 -0.0000
vn -0.0000 1.0000 -0.0000
vn 1.0000 -0.0000 -0.0000
vt 0.627281 0.750000
vt 0.627281 0.811359
vt 0.688641 0.811359
vt 0.627281 0.688641
vt 0.820485 0.627281
vt 0.820485 0.688641
vt 0.759126 0.688641
vt 0.759126 0.627281
vt 0.565922 0.750000
vt 0.565922 0.688641
vt 0.565922 0.872719
vt 0.627281 0.872719
vt 0.820485 0.504563
vt 0.820485 0.565922
vt 0.759126 0.565922
vt 0.759126 0.504563
vt 0.565922 0.811359
vt 0.504563 0.750000
vt 0.504563 0.811359
vt 0.697766 0.627281
vt 0.697766 0.565922
vt 0.504563 0.688641
vt 0.697766 0.688641
vt 0.504563 0.872719
vt 0.697766 0.504563
vt 0.688641 0.750000
vt 0.881844 0.565922
vt 0.881844 0.627281
vt 0.627281 0.065922
vt 0.750000 0.065922
vt 0.750000 0.250000
vt 0.627281 0.250000
vt 0.750000 0.434078
vt 0.627281 0.434078
vt 0.627281 0.311359
vt 0.750000 0.311359
vt 0.872719 0.434078
vt 0.811359 0.434078
vt 0.811359 0.311359
vt 0.872719 0.311359
vt 0.811359 0.065922
vt 0.872719 0.065922
vt 0.872719 0.250000
vt 0.811359 0.250000
vt 0.565922 0.434078
vt 0.504563 0.434078
vt 0.504563 0.311359
vt 0.565922 0.311359
vt 0.434078 0.311359
vt 0.434078 0.495437
vt 0.434078 0.556796
vt 0.565922 0.065922
vt 0.565922 0.250000
vt 0.627281 0.565922
vt 0.627281 0.627281
vt 0.688641 0.627281
vt 0.627281 0.504563
vt 0.565922 0.504563
vt 0.820485 0.811359
vt 0.820485 0.872719
vt 0.759126 0.872719
vt 0.759126 0.811359
vt 0.565922 0.565922
vt 0.820485 0.750000
vt 0.759126 0.750000
vt 0.565922 0.627281
vt 0.504563 0.565922
vt 0.504563 0.627281
vt 0.697766 0.811359
vt 0.697766 0.750000
vt 0.504563 0.504563
vt 0.697766 0.872719
vt 0.688641 0.565922
vt 0.881844 0.750000
vt 0.881844 0.811359
vt 0.188641 0.311359
vt 0.311359 0.311359
vt 0.372719 0.495437
vt 0.127281 0.495437
vt 0.504563 0.250000
vt 0.188641 0.740874
vt 0.311359 0.740874
vt 0.434078 0.679515
vt 0.127281 0.311359
vt 0.372719 0.250000
vt 0.311359 0.250000
vt 0.495437 0.311359
vt 0.495437 0.495437
vt 0.065922 0.679515
vt 0.065922 0.556796
vt 0.188641 0.679515
vt 0.127281 0.556796
vt 0.372719 0.556796
vt 0.311359 0.679515
vt 0.750000 0.004563
vt 0.811359 0.004563
vt 0.065922 0.250000
vt 0.065922 0.311359
vt 0.750000 0.495437
vt 0.627281 0.495437
vt 0.127281 0.250000
vt 0.188641 0.250000
vt 0.872719 0.004563
vt 0.434078 0.250000
vt 0.565922 0.004563
vt 0.627281 0.004563
vt 0.127281 0.740874
vt 0.504563 0.065922
vt 0.504563 0.004563
vt 0.065922 0.495437
vt 0.811359 0.495437
vt 0.065922 0.740874
vt 0.495437 0.679515
vt 0.495437 0.556796
vt 0.872719 0.495437
vt 0.372719 0.740874
vt 0.434078 0.740874
vt 0.565922 0.495437
vt 0.504563 0.495437
vt 0.127281 0.679515
vt 0.372719 0.127281
vt 0.311359 0.127281
vt 0.372719 0.679515
vt 0.372719 0.311359
vt 0.943204 0.372719
vt 0.881844 0.372719
vt 0.881844 0.250000
vt 0.943204 0.250000
vt 0.881844 0.004563
vt 0.943204 0.004563
vt 0.943204 0.188641
vt 0.881844 0.188641
vt 0.188641 0.127281
vt 0.127281 0.127281
vt 0.004563 0.495437
vt 0.004563 0.556796
vt 0.004563 0.311359
vt 0.952329 0.872719
vt 0.890970 0.872719
vt 0.890970 0.750000
vt 0.952329 0.750000
vt 0.004563 0.679515
vt 0.890970 0.688641
vt 0.952329 0.688641
vt 0.890970 0.504563
vt 0.952329 0.504563
vt 0.004563 0.811359
vt 0.004563 0.750000
vt 0.127281 0.750000
vt 0.127281 0.811359
vt 0.127281 0.934078
vt 0.004563 0.934078
vt 0.127281 0.995437
vt 0.004563 0.995437
vt 0.197766 0.934078
vt 0.136407 0.934078
vt 0.136407 0.811359
vt 0.197766 0.811359
vt 0.188641 0.065922
vt 0.311359 0.065922
vt 0.127281 0.065922
vt 0.259126 0.750000
vt 0.259126 0.811359
vt 0.197766 0.750000
vt 0.372719 0.065922
vt 0.259126 0.934078
vt 0.259126 0.995437
vt 0.197766 0.995437
vt 0.311359 0.004563
vt 0.188641 0.004563
vt 0.127281 0.004563
vt 0.136407 0.750000
vt 0.372719 0.004563
vt 0.136407 0.995437
vt 0.329611 0.750000
vt 0.329611 0.872719
vt 0.268251 0.872719
vt 0.268251 0.750000
s 1
f 24/1/1 28/1/1 33/2/1 23/2/1
f 23/2/2 33/2/2 25/3/2 17/3/2
f 1/1/3 24/1/3 40/4/3 39/4/3
f 1/5/4 39/6/4 10/7/4 7/8/4
f 40/4/5 24/1/5 8/9/5 38/10/5
f 13/11/2 2/11/2 4/12/2 3/12/2
f 3/12/3 4/12/3 23/2/3 22/2/3
f 3/13/4 22/14/4 20/15/4 13/16/4
f 23/2/5 4/12/5 2/11/5 21/17/5
f 5/18/1 6/18/1 15/19/1 14/19/1
f 20/15/4 7/8/4 5/20/4 14/21/4
f 8/9/5 21/17/5 15/19/5 6/18/5
f 9/22/1 48/22/1 6/18/1 5/18/1
f 7/8/4 10/7/4 9/23/4 5/20/4
f 38/10/5 8/9/5 6/18/5 48/22/5
f 11/24/2 12/24/2 2/11/2 13/11/2
f 14/19/1 15/19/1 12/24/1 11/24/1
f 13/16/4 20/15/4 14/21/4 11/25/4
f 21/17/5 2/11/5 12/24/5 15/19/5
f 22/2/2 23/2/2 17/3/2 16/3/2
f 16/3/3 17/3/3 19/26/3 18/26/3
f 18/26/6 19/26/6 24/1/6 1/1/6
f 16/27/4 18/28/4 1/5/4 22/14/4
f 19/26/6 26/26/6 28/1/6 24/1/6
f 17/3/3 25/3/3 26/26/3 19/26/3
f 22/14/4 1/5/4 7/8/4 20/15/4
f 24/1/5 23/2/5 21/17/5 8/9/5
f 76/29/4 69/30/4 28/31/4 67/32/4
f 78/33/4 66/34/4 60/35/4 26/36/4
f 79/37/4 27/38/4 25/39/4 30/40/4
f 32/41/4 31/42/4 29/43/4 33/44/4
f 30/40/4 25/39/4 33/44/4 29/43/4
f 82/45/4 84/46/4 64/47/4 63/48/4
f 148/49/6 75/49/6 65/50/6 145/50/6
f 89/51/6 145/50/6 65/50/6 64/51/6
f 61/52/4 76/29/4 67/32/4 62/53/4
f 59/54/1 62/54/1 67/55/1 58/55/1
f 58/55/2 67/55/2 60/56/2 52/56/2
f 34/54/3 59/54/3 37/57/3 36/57/3
f 36/57/6 37/57/6 35/58/6 47/58/6
f 34/59/4 36/60/4 47/61/4 43/62/4
f 37/57/5 59/54/5 44/63/5 35/58/5
f 39/4/3 40/4/3 58/55/3 57/55/3
f 39/6/4 57/64/4 55/65/4 10/7/4
f 58/55/5 40/4/5 38/10/5 56/66/5
f 41/67/1 42/67/1 50/68/1 49/68/1
f 55/65/4 43/62/4 41/69/4 49/70/4
f 47/58/6 35/58/6 46/71/6 45/71/6
f 45/71/1 46/71/1 42/67/1 41/67/1
f 43/62/4 47/61/4 45/72/4 41/69/4
f 35/58/5 44/63/5 42/67/5 46/71/5
f 49/68/1 50/68/1 48/22/1 9/22/1
f 10/7/4 55/65/4 49/70/4 9/23/4
f 56/66/5 38/10/5 48/22/5 50/68/5
f 57/55/2 58/55/2 52/56/2 51/56/2
f 51/56/3 52/56/3 54/73/3 53/73/3
f 53/73/6 54/73/6 59/54/6 34/54/6
f 51/74/4 53/75/4 34/59/4 57/64/4
f 54/73/6 63/73/6 62/54/6 59/54/6
f 52/56/3 60/56/3 63/73/3 54/73/3
f 57/64/4 34/59/4 43/62/4 55/65/4
f 59/54/5 58/55/5 56/66/5 44/63/5
f 121/76/5 184/77/5 129/78/5 122/79/5
f 63/48/4 64/47/4 65/80/4 62/53/4
f 94/81/3 102/82/3 86/82/3 77/81/3
f 84/83/6 96/83/6 89/51/6 64/51/6
f 122/79/5 128/84/5 121/76/5
f 99/85/1 117/85/1 116/86/1
f 159/50/5 135/49/5 158/87/5 155/88/5
f 87/89/2 79/89/2 30/90/2 98/90/2
f 120/91/5 125/92/5 130/93/5 144/94/5
f 32/41/4 69/30/4 68/95/4 71/96/4
f 70/97/2 90/97/2 91/98/2 31/98/2
f 77/99/4 86/100/4 66/34/4 78/33/4
f 71/101/1 92/101/1 90/97/1 70/97/1
f 72/86/1 116/86/1 104/102/1 68/102/1
f 31/42/4 32/41/4 71/96/4 70/103/4
f 75/49/6 148/49/6 100/104/6 74/104/6
f 76/29/4 61/52/4 73/105/4 72/106/4
f 74/104/1 100/104/1 99/85/1 73/85/1
f 81/107/3 93/107/3 94/81/3 77/81/3
f 61/52/4 75/108/4 74/109/4 73/105/4
f 88/110/2 98/90/2 30/90/2 29/110/2
f 81/111/4 77/99/4 78/33/4 27/38/4
f 79/89/2 87/89/2 95/112/2 80/112/2
f 147/113/6 152/113/6 151/114/6 146/114/6
f 95/112/3 93/107/3 81/107/3 80/112/3
f 80/115/4 81/111/4 27/38/4 79/37/4
f 83/116/3 101/116/3 97/117/3 85/117/3
f 91/98/2 88/110/2 29/110/2 31/98/2
f 97/117/6 96/83/6 84/83/6 85/117/6
f 83/118/4 85/119/4 84/46/4 82/45/4
f 108/112/3 109/107/3 93/107/3 95/112/3
f 92/101/1 114/101/1 115/97/1 90/97/1
f 116/86/1 72/86/1 73/85/1 99/85/1
f 148/49/6 106/49/6 105/104/6 100/104/6
f 105/104/1 117/85/1 99/85/1 100/104/1
f 92/101/1 104/102/1 114/101/1
f 87/89/2 113/89/2 108/112/2 95/112/2
f 101/116/3 118/116/3 111/117/3 97/117/3
f 94/81/3 93/107/3 109/107/3 107/81/3
f 96/83/3 110/83/3 152/113/3 147/113/3
f 111/117/6 110/83/6 96/83/6 97/117/6
f 151/114/6 156/114/6 155/88/6 154/88/6
f 141/116/3 143/117/3 111/117/3 118/116/3
f 106/49/6 135/49/6 134/104/6 105/104/6
f 134/104/1 133/85/1 117/85/1 105/104/1
f 109/107/3 138/107/3 136/81/3 107/81/3
f 126/89/2 137/112/2 108/112/2 113/89/2
f 119/120/5 125/92/5 120/91/5
f 137/112/3 138/107/3 109/107/3 108/112/3
f 139/82/3 141/116/3 118/116/3 112/82/3
f 143/117/6 142/83/6 110/83/6 111/117/6
f 176/121/1 181/121/1 175/122/1 177/122/1
f 136/81/3 139/82/3 112/82/3 107/81/3
f 130/93/5 140/123/5 144/94/5
f 139/82/5 136/81/5 120/91/5 144/94/5
f 125/92/5 122/79/5 129/78/5 130/93/5
f 119/120/5 126/89/5 124/90/5 125/92/5
f 127/98/5 128/84/5 122/79/5 123/110/5
f 125/92/5 124/90/5 123/110/5 122/79/5
f 184/77/5 185/124/5 129/78/5
f 142/83/5 140/123/5 130/93/5 131/51/5
f 185/124/5 135/49/5 159/50/5 129/78/5
f 131/51/5 130/93/5 129/78/5 159/50/5
f 96/125/4 147/126/4 146/127/4 89/128/4
f 157/113/5 142/83/5 131/51/5 156/114/5
f 149/129/4 148/130/4 145/131/4 150/132/4
f 128/84/5 127/98/5 132/97/5 172/101/5
f 135/49/5 185/124/5 133/85/5 134/104/5
f 136/81/5 138/107/5 119/120/5 120/91/5
f 196/122/1 202/122/1 221/133/1 201/133/1
f 179/133/1 178/133/1 186/134/1
f 138/107/5 137/112/5 126/89/5 119/120/5
f 141/116/5 139/82/5 144/94/5 140/123/5
f 143/117/5 141/116/5 140/123/5 142/83/5
f 90/97/2 115/97/2 103/98/2 91/98/2
f 89/128/4 146/127/4 150/132/4 145/131/4
f 149/87/1 153/87/1 106/49/1 148/49/1
f 151/114/6 154/88/6 150/88/6 146/114/6
f 149/87/6 150/88/6 154/88/6 153/87/6
f 163/135/2 166/135/2 164/136/2 160/136/2
f 110/83/3 142/83/3 157/113/3 152/113/3
f 158/87/1 135/49/1 106/49/1 153/87/1
f 152/113/6 157/113/6 156/114/6 151/114/6
f 155/88/6 158/87/6 153/87/6 154/88/6
f 166/135/2 171/135/2 168/136/2 164/136/2
f 103/98/1 167/137/1 162/137/1 91/98/1
f 156/114/5 131/51/5 159/50/5 155/88/5
f 161/138/4 87/139/4 98/140/4 160/141/4
f 161/142/3 165/142/3 113/89/3 87/89/3
f 69/30/4 32/41/4 33/44/4 28/31/4
f 164/136/2 165/142/2 161/142/2 160/136/2
f 160/141/4 98/140/4 88/143/4 163/144/4
f 27/38/4 78/33/4 26/36/4 25/39/4
f 167/137/2 166/135/2 163/135/2 162/137/2
f 91/145/4 162/146/4 163/144/4 88/143/4
f 169/142/3 126/89/3 113/89/3 165/142/3
f 103/98/1 127/98/1 170/137/1 167/137/1
f 168/136/2 169/142/2 165/142/2 164/136/2
f 167/137/2 170/137/2 171/135/2 166/135/2
f 173/134/2 186/134/2 172/101/2 114/101/2
f 124/90/5 168/136/5 171/135/5 123/110/5
f 126/89/5 169/142/5 168/136/5 124/90/5
f 76/29/4 72/106/4 68/95/4 69/30/4
f 65/80/4 75/108/4 61/52/4 62/53/4
f 171/135/5 170/137/5 127/98/5 123/110/5
f 66/34/4 82/45/4 63/48/4 60/35/4
f 174/147/4 173/148/4 114/149/4 104/150/4
f 116/151/4 177/152/4 174/147/4 104/150/4
f 117/153/4 176/154/4 177/152/4 116/151/4
f 200/134/2 219/134/2 213/101/2 197/101/2
f 186/134/2 187/134/2 193/101/2 172/101/2
f 176/121/6 117/85/6 133/85/6 181/121/6
f 183/76/3 189/77/3 184/77/3 121/76/3
f 177/122/1 175/122/1 179/133/1 174/133/1
f 114/101/1 172/101/1 132/97/1 115/97/1
f 172/101/2 193/101/2 182/84/2 128/84/2
f 128/84/3 182/84/3 183/76/3 121/76/3
f 184/77/3 189/77/3 191/124/3 185/124/3
f 185/124/6 191/124/6 194/85/6 133/85/6
f 194/85/6 231/121/6 181/121/6 133/85/6
f 187/134/2 200/134/2 197/101/2 193/101/2
f 193/101/2 197/101/2 188/84/2 182/84/2
f 182/84/3 188/84/3 198/76/3 183/76/3
f 189/77/3 183/76/3 198/76/3 190/77/3
f 189/77/3 190/77/3 192/124/3 191/124/3
f 191/124/6 192/124/6 199/85/6 194/85/6
f 199/85/6 195/121/6 231/121/6 194/85/6
f 217/85/6 203/121/6 195/121/6 199/85/6
f 197/101/2 213/101/2 204/84/2 188/84/2
f 188/84/3 204/84/3 207/76/3 198/76/3
f 208/76/3 212/77/3 211/77/3 207/76/3
f 190/77/3 211/77/3 209/124/3 192/124/3
f 192/124/6 209/124/6 217/85/6 199/85/6
f 214/101/5 220/134/5 222/133/5 215/102/5
f 219/134/2 220/134/2 214/101/2 213/101/2
f 201/133/1 221/133/1 219/134/1 200/134/1
f 239/155/4 238/156/4 235/157/4 234/158/4
f 195/121/1 203/121/1 202/122/1 196/122/1
f 213/101/2 214/101/2 205/84/2 204/84/2
f 204/84/3 205/84/3 208/76/3 207/76/3
f 207/76/2 206/102/2 215/102/2 208/76/2
f 208/76/5 205/84/5 214/101/5 215/102/5
f 212/77/5 208/76/5 215/102/5 216/86/5
f 211/77/3 212/77/3 210/124/3 209/124/3
f 209/124/6 210/124/6 218/85/6 217/85/6
f 210/124/5 212/77/5 216/86/5 218/85/5
f 218/85/6 224/121/6 203/121/6 217/85/6
f 223/122/5 224/121/5 218/85/5 216/86/5
f 215/102/5 222/133/5 223/122/5 216/86/5
f 221/133/1 222/133/1 220/134/1 219/134/1
f 196/122/5 201/133/5 229/159/5 247/160/5
f 202/122/1 223/122/1 222/133/1 221/133/1
f 203/121/1 224/121/1 223/122/1 202/122/1
f 233/161/2 227/161/2 187/134/2 186/134/2
f 186/162/4 178/163/4 234/158/4 233/164/4
f 181/121/6 231/121/6 226/165/6 225/165/6
f 180/166/4 181/167/4 225/168/4 239/155/4
f 227/161/2 228/161/2 200/134/2 187/134/2
f 201/133/5 200/134/5 228/161/5 229/159/5
f 238/169/1 246/169/1 236/170/1 235/170/1
f 231/121/6 195/121/6 230/165/6 226/165/6
f 195/121/5 196/122/5 247/160/5 230/165/5
f 232/171/2 240/171/2 227/161/2 233/161/2
f 235/170/1 236/170/1 240/171/1 232/171/1
f 233/164/4 234/158/4 235/157/4 232/172/4
f 249/160/1 239/160/1 234/159/1 248/159/1
f 246/169/1 243/169/1 242/170/1 236/170/1
f 225/165/6 226/165/6 244/173/6 237/173/6
f 237/173/1 244/173/1 246/169/1 238/169/1
f 239/155/4 225/168/4 237/174/4 238/156/4
f 240/171/2 241/171/2 228/161/2 227/161/2
f 236/170/1 242/170/1 241/171/1 240/171/1
f 229/159/5 228/161/5 241/171/5 242/170/5
f 247/160/5 229/159/5 242/170/5 243/169/5
f 179/175/4 175/176/4 249/177/4 248/178/4
f 226/165/6 230/165/6 245/173/6 244/173/6
f 244/173/1 245/173/1 243/169/1 246/169/1
f 230/165/5 247/160/5 243/169/5 245/173/5
f 248/159/2 234/159/2 178/133/2 179/133/2
f 26/36/4 60/35/4 67/32/4 28/31/4
f 175/122/6 180/122/6 239/160/6 249/160/6
f 50/68/5 42/67/5 44/63/5 56/66/5
f 132/97/2 127/98/2 103/98/2 115/97/2
f 175/122/1 181/121/1 180/122/1
f 186/134/1 173/134/1 174/133/1 179/133/1
f 101/116/3 83/116/3 86/82/3 102/82/3
f 82/45/4 66/34/4 86/100/4 83/118/4
f 101/116/3 102/82/3 112/82/3 118/116/3
f 190/77/3 198/76/3 207/76/3 211/77/3
f 68/102/1 104/102/1 92/101/1 71/101/1
f 102/82/3 94/81/3 107/81/3 112/82/3
